<svg width="32" height="32" viewBox="0 0 32 32" fill="none" xmlns="http://www.w3.org/2000/svg">
  <!-- Gradient background -->
  <defs>
    <linearGradient id="eyeGradient" x1="0%" y1="0%" x2="100%" y2="100%">
      <stop offset="0%" stop-color="#d97706" />
      <stop offset="100%" stop-color="#92400e" />
    </linearGradient>
    <radialGradient id="irisGradient" cx="50%" cy="50%" r="50%" fx="50%" fy="50%">
      <stop offset="0%" stop-color="#fbbf24" />
      <stop offset="70%" stop-color="#d97706" />
      <stop offset="100%" stop-color="#92400e" />
    </radialGradient>
    <filter id="glow" x="-20%" y="-20%" width="140%" height="140%">
      <feGaussianBlur stdDeviation="1" result="blur" />
      <feComposite in="SourceGraphic" in2="blur" operator="over" />
    </filter>
  </defs>
  
  <!-- Background circle with gradient -->
  <circle cx="16" cy="16" r="16" fill="url(#eyeGradient)" />
  
  <!-- Outer eye shape with subtle shadow -->
  <path d="M4 16c0 0 4-9.33 12-9.33s12 9.33 12 9.33-4 9.33-12 9.33S4 16 4 16z" 
        fill="#422006" 
        stroke="white" 
        stroke-width="0.75" 
        stroke-linecap="round" 
        stroke-linejoin="round" 
        filter="url(#glow)" />
  
  <!-- Stylized eyelashes - more modern and sleek -->
  <path d="M7 11.5C6 9.5 4.5 9 3.5 8.5" stroke="white" stroke-width="0.75" stroke-linecap="round" />
  <path d="M10 10C9.5 8 8 7 7 6.5" stroke="white" stroke-width="0.75" stroke-linecap="round" />
  <path d="M13.5 9.5C13.5 7.5 12.5 6 11.5 5" stroke="white" stroke-width="0.75" stroke-linecap="round" />
  <path d="M18.5 9.5C18.5 7.5 19.5 6 20.5 5" stroke="white" stroke-width="0.75" stroke-linecap="round" />
  <path d="M22 10C22.5 8 24 7 25 6.5" stroke="white" stroke-width="0.75" stroke-linecap="round" />
  <path d="M25 11.5C26 9.5 27.5 9 28.5 8.5" stroke="white" stroke-width="0.75" stroke-linecap="round" />
  
  <!-- Inner eye shape with depth -->
  <path d="M5 16c0 0 3.5-8 11-8s11 8 11 8-3.5 8-11 8S5 16 5 16z" 
        fill="#78350f" 
        stroke="white" 
        stroke-width="0.5" 
        stroke-opacity="0.5" 
        stroke-linecap="round" 
        stroke-linejoin="round" />
  
  <!-- Iris with gradient -->
  <circle cx="16" cy="16" r="5" 
          fill="url(#irisGradient)" 
          stroke="white" 
          stroke-width="0.5" 
          stroke-opacity="0.8" />
  
  <!-- Pupil with depth -->
  <circle cx="16" cy="16" r="2.5" 
          fill="#422006" 
          stroke="#fbbf24" 
          stroke-width="0.25" />
  
  <!-- Multiple light reflections for depth -->
  <circle cx="17.5" cy="14.5" r="1" fill="white" opacity="0.9" />
  <circle cx="15" cy="15" r="0.5" fill="white" opacity="0.7" />
  
  <!-- Subtle tech circuit lines -->
  <path d="M16 21.5L16 24" stroke="#fbbf24" stroke-width="0.5" stroke-linecap="round" />
  <path d="M16 8L16 10.5" stroke="#fbbf24" stroke-width="0.5" stroke-linecap="round" />
  <path d="M10.5 16L8 16" stroke="#fbbf24" stroke-width="0.5" stroke-linecap="round" />
  <path d="M24 16L21.5 16" stroke="#fbbf24" stroke-width="0.5" stroke-linecap="round" />
  
  <!-- Subtle glow overlay -->
  <circle cx="16" cy="16" r="15" 
          stroke="#fbbf24" 
          stroke-width="0.5" 
          stroke-opacity="0.3" 
          fill="none" />
</svg>